<?xml version="1.0" standalone="no"?>
<!DOCTYPE svg PUBLIC "-//W3C//DTD SVG 20010904//EN"
 "http://www.w3.org/TR/2001/REC-SVG-20010904/DTD/svg10.dtd">
<svg version="1.0" xmlns="http://www.w3.org/2000/svg"
 width="864.000000pt" height="640.000000pt" viewBox="0 0 864.000000 640.000000"
 preserveAspectRatio="xMidYMid meet">
<metadata>
Created by potrace 1.16, written by Peter Selinger 2001-2019
</metadata>
<g transform="translate(0.000000,640.000000) scale(0.100000,-0.100000)"
fill="#000000" stroke="none">
<path d="M3912 5289 c-588 -77 -1090 -316 -1501 -714 -276 -268 -477 -574
-606 -926 l-50 -137 -64 -27 c-91 -40 -172 -119 -218 -213 l-38 -76 -3 -355
c-2 -222 1 -373 8 -403 35 -165 187 -320 351 -357 112 -26 214 -5 271 55 59
63 58 52 58 661 0 522 -2 561 -19 598 -35 75 -111 125 -191 125 -22 0 -40 2
-40 4 0 11 64 177 96 250 177 404 521 796 920 1047 131 83 372 198 509 244
258 86 467 123 740 132 614 19 1177 -163 1654 -535 216 -169 445 -426 586
-657 52 -86 170 -328 198 -407 l25 -68 -42 0 c-79 -1 -158 -55 -190 -132 -24
-56 -24 -1130 0 -1186 35 -84 111 -132 209 -132 180 1 334 99 418 268 l42 85
0 387 0 386 -38 76 c-47 95 -127 173 -220 213 l-66 29 -47 121 c-278 721 -870
1280 -1614 1525 -158 52 -327 93 -460 110 -47 6 -118 15 -158 20 -112 15 -361
10 -520 -11z m2738 -2339 l0 -150 28 0 c48 0 52 13 52 162 l0 138 65 0 65 0 0
-145 c0 -106 -4 -155 -15 -181 -13 -32 -13 -39 0 -64 9 -17 15 -56 15 -95 l0
-65 -65 0 -65 0 -1 58 c-1 31 -1 60 0 65 0 4 -17 7 -39 7 l-40 0 0 -65 0 -65
-65 0 -65 0 0 275 0 275 65 0 65 0 0 -150z m-4910 0 l0 -140 -65 0 -65 0 0
140 0 140 65 0 65 0 0 -140z m200 -60 l0 -200 -100 0 -100 0 0 -65 0 -65 -65
0 -65 0 0 120 0 120 105 0 105 0 0 145 0 145 60 0 60 0 0 -200z"/>
<path d="M4130 4663 c-8 -2 -26 -19 -40 -36 -20 -25 -21 -30 -7 -24 13 5 17 3
15 -5 -5 -13 -58 -20 -58 -8 0 4 9 15 20 25 28 26 25 39 -5 18 -26 -19 -34
-33 -42 -73 -2 -13 -9 -27 -14 -31 -5 -3 -12 -19 -15 -35 -3 -16 -12 -37 -21
-46 -9 -10 -13 -18 -8 -18 4 0 3 -6 -2 -12 -6 -7 -13 -22 -17 -32 -5 -16 -4
-17 9 -6 9 7 13 15 10 18 -3 3 3 14 12 25 10 10 17 22 17 26 -2 12 19 50 26
46 4 -3 15 4 25 15 10 11 23 16 29 13 6 -4 16 -8 21 -9 6 -1 22 -4 37 -7 16
-3 31 0 39 9 6 7 15 12 19 9 4 -2 7 5 6 18 -1 13 4 21 12 19 8 -1 11 2 7 8 -3
6 -12 7 -18 3 -6 -4 -23 -7 -37 -7 -22 0 -25 5 -26 35 0 18 6 42 14 52 8 9 13
16 11 16 -2 -1 -11 -3 -19 -6z"/>
<path d="M3927 4547 c-15 -18 -23 -33 -18 -35 11 -4 10 -5 -34 -54 -22 -26
-43 -39 -31 -20 8 13 -22 44 -36 36 -10 -6 -10 -4 1 9 9 11 10 17 2 17 -24 0
-9 20 22 29 17 5 24 10 14 10 -10 1 -15 6 -12 11 20 33 -87 -19 -136 -65 -21
-20 -39 -43 -39 -51 0 -10 -5 -12 -12 -7 -28 16 -72 0 -116 -42 -48 -47 -47
-44 -26 -136 4 -20 1 -27 -19 -36 -27 -13 -103 -121 -99 -141 3 -10 -1 -11
-17 -2 -19 10 -21 8 -21 -24 0 -29 7 -39 42 -65 40 -30 42 -33 39 -79 -1 -26
-7 -51 -12 -56 -12 -13 -12 -46 1 -46 18 0 10 -56 -16 -108 l-26 -52 18 -50
c10 -28 22 -50 26 -50 4 0 24 -18 44 -40 20 -22 45 -40 56 -40 11 0 48 -28 82
-62 l62 -63 3 -94 c2 -82 6 -101 37 -167 18 -40 35 -82 37 -93 2 -12 17 -37
34 -56 18 -19 37 -51 43 -70 11 -34 11 -35 -47 -89 -32 -30 -78 -62 -103 -72
-25 -9 -48 -22 -52 -27 -3 -6 -44 -12 -90 -14 -221 -7 -268 -10 -280 -20 -7
-6 -39 -13 -70 -17 -109 -11 -322 -75 -405 -122 -67 -37 -125 -78 -147 -105
-27 -33 -66 -120 -66 -150 0 -14 -13 -43 -30 -64 -17 -21 -30 -44 -30 -52 0
-8 -9 -22 -21 -32 -12 -10 -22 -32 -25 -56 -2 -22 -12 -65 -20 -96 -12 -42
-14 -61 -6 -75 10 -17 11 -15 12 12 0 38 25 92 33 72 3 -7 6 19 6 57 1 59 4
73 21 85 11 8 20 20 20 27 0 7 5 13 10 13 6 0 10 7 10 16 0 8 4 12 10 9 6 -4
10 5 10 20 0 27 23 59 34 48 3 -4 6 -1 6 5 0 7 5 12 10 12 6 0 8 -10 4 -24 -4
-16 -1 -25 10 -29 9 -4 16 -1 16 5 0 7 5 6 15 -2 17 -14 10 -34 -8 -23 -8 4
-7 1 1 -9 9 -11 10 -18 2 -23 -5 -3 -10 -1 -10 6 0 6 -9 1 -21 -12 -11 -13
-18 -19 -14 -12 3 7 -1 24 -10 37 -9 14 -16 28 -15 31 1 4 -2 10 -6 13 -4 4
-4 -4 0 -18 4 -14 9 -34 11 -45 2 -11 4 -22 5 -25 1 -3 2 -9 1 -13 -1 -5 3 -6
8 -3 5 4 17 -4 25 -16 9 -12 16 -17 16 -11 0 7 -4 14 -9 17 -16 10 -5 41 15
41 13 0 19 -7 18 -21 -1 -11 5 -21 12 -21 7 0 10 5 6 11 -4 6 -7 18 -7 26 0 8
-4 22 -9 30 -5 8 2 5 16 -8 l25 -23 -1 25 c-1 14 -6 29 -10 33 -5 5 -6 1 -1
-7 6 -11 5 -12 -3 -5 -6 6 -14 28 -18 50 -3 22 -7 47 -9 55 -1 8 -8 14 -14 12
-15 -3 -14 41 2 57 10 11 10 13 0 7 -22 -13 -14 12 13 39 30 30 46 25 19 -5
-14 -15 -15 -19 -4 -15 8 3 22 -2 31 -12 27 -30 67 -117 74 -161 3 -23 10 -40
14 -37 3 2 7 -2 7 -10 0 -8 -4 -12 -9 -8 -6 3 -8 -16 -7 -44 1 -27 -1 -54 -4
-60 -7 -12 6 -27 15 -17 3 2 3 28 1 57 -3 40 -2 49 7 40 7 -6 12 -38 11 -75
-2 -81 -4 -92 -21 -114 -14 -16 -13 -17 8 -12 18 5 21 4 13 -6 -6 -7 -8 -16
-5 -19 4 -3 8 -26 10 -51 2 -35 0 -44 -12 -39 -8 3 -15 9 -15 14 -2 12 -6 28
-9 34 -7 14 -5 32 4 45 10 13 9 13 -7 1 -9 -8 -15 -16 -12 -19 3 -3 -3 -15
-12 -26 -17 -20 -17 -20 0 -7 20 16 19 17 22 -32 1 -21 6 -41 10 -45 5 -4 5 2
1 13 -6 18 -6 19 9 4 8 -8 17 -33 20 -55 2 -21 7 -49 9 -61 3 -13 1 -25 -4
-28 -5 -3 -6 -18 -3 -33 3 -15 6 -41 7 -59 0 -17 4 -29 8 -27 5 3 5 10 2 16
-4 6 -2 8 4 5 15 -10 8 -42 -9 -43 -8 0 -21 4 -29 10 -9 6 -7 1 4 -11 10 -12
16 -29 13 -37 -7 -18 9 -31 18 -16 13 21 22 0 20 -50 -1 -35 3 -54 14 -63 13
-10 14 -10 5 3 -8 12 -12 113 -4 123 7 8 7 38 0 42 -5 3 -7 28 -5 55 2 27 -1
52 -6 56 -7 4 -9 -5 -6 -23 3 -19 0 -30 -7 -30 -12 0 -16 72 -5 92 5 9 5 31
-1 38 -1 1 -3 9 -5 17 -12 57 -12 70 1 81 7 6 11 16 7 23 -15 24 -26 163 -13
171 7 5 5 100 -4 148 -5 30 -50 151 -67 181 -13 23 -20 96 -9 96 4 0 6 9 3 20
-3 12 0 20 6 20 7 0 9 -4 6 -10 -3 -5 -3 -15 1 -22 5 -8 10 -6 14 8 5 12 17
19 33 19 14 1 24 -1 22 -3 -3 -3 9 -22 26 -43 17 -22 32 -47 34 -57 2 -9 4
-19 5 -22 1 -3 2 -9 1 -13 -1 -5 3 -6 9 -2 6 3 7 12 4 18 -4 7 -3 8 2 4 5 -5
10 -13 10 -18 1 -5 3 -11 4 -14 2 -4 4 -25 9 -131 1 -35 16 -23 19 17 1 18 5
35 8 38 3 3 3 -16 1 -42 -2 -27 -10 -52 -19 -59 -19 -16 -30 -56 -16 -64 12
-7 19 -1 22 20 1 9 6 15 10 14 5 -2 9 -29 8 -61 0 -32 3 -56 6 -52 6 6 9 16
18 80 3 22 12 47 18 55 17 20 14 45 -4 45 -9 0 -14 8 -12 19 5 25 -18 105 -31
113 -6 4 -7 1 -2 -7 5 -8 4 -11 -3 -6 -6 4 -9 13 -6 20 3 7 -7 28 -23 46 -15
18 -28 39 -29 46 -1 8 -9 21 -18 30 -9 9 -16 33 -16 57 -1 33 -3 38 -11 25 -5
-10 -15 -18 -22 -18 -6 0 0 11 14 25 27 27 114 45 106 22 -3 -7 -8 -11 -13
-10 -5 1 -10 -9 -10 -23 l-2 -24 29 23 c20 15 28 29 25 45 -3 23 17 31 30 10
4 -7 3 -8 -4 -4 -8 5 -12 0 -12 -13 0 -11 -4 -23 -10 -26 -5 -3 -10 -11 -10
-16 0 -6 6 -7 13 -3 7 5 7 2 -2 -10 -12 -14 -12 -17 0 -14 8 2 15 -7 17 -22 2
-14 10 -32 17 -40 7 -8 11 -22 10 -31 -2 -9 3 -16 10 -16 7 0 12 7 10 16 -1 9
11 40 27 69 16 29 28 58 25 65 -2 7 -10 0 -17 -15 -7 -16 -17 -28 -21 -28 -4
0 -13 -15 -19 -32 -11 -27 -14 -30 -17 -13 -2 11 -7 27 -10 35 -9 24 -8 53 4
75 6 11 8 25 6 31 -2 6 9 14 24 17 32 6 44 0 24 -12 -11 -7 -8 -12 10 -24 31
-20 99 -31 99 -16 0 6 -9 9 -20 6 -13 -3 -20 0 -20 9 0 8 -3 13 -7 13 -21 -3
-33 2 -33 16 0 8 5 15 10 15 6 0 10 -5 10 -11 0 -6 5 -9 11 -7 18 6 11 23 -13
30 l-23 6 23 1 c28 1 38 -2 34 -11 -1 -5 3 -8 9 -8 5 0 7 -4 4 -10 -4 -6 3 -9
16 -7 12 1 24 -4 26 -11 3 -8 -2 -10 -14 -6 -14 5 -15 4 -3 -4 17 -13 30 -7
30 13 0 9 6 12 16 8 10 -4 12 -8 5 -12 -8 -5 -6 -13 4 -27 11 -14 15 -15 14
-4 -4 39 2 47 31 48 17 0 31 -5 31 -11 1 -7 2 -24 2 -39 1 -20 4 -25 13 -17 7
6 10 18 7 26 -4 11 -3 14 6 9 7 -5 10 -14 7 -21 -3 -8 2 -19 10 -25 8 -7 14
-10 14 -6 0 3 15 -2 33 -12 17 -10 41 -22 51 -25 16 -6 17 -5 6 8 -7 8 -16 13
-20 10 -4 -2 -15 4 -25 15 -16 18 -16 20 -2 20 10 0 17 -4 17 -8 0 -5 6 -9 13
-9 7 0 12 11 11 24 -1 30 -12 40 -20 19 -3 -9 -11 -16 -16 -16 -7 0 -6 5 1 13
8 10 7 17 -1 25 -9 9 -9 15 1 25 11 10 13 9 8 -5 -7 -19 8 -34 18 -18 3 5 13
10 22 10 11 0 13 -4 6 -12 -17 -21 -1 -84 18 -73 7 5 7 11 1 17 -5 5 -7 20 -4
33 6 32 36 25 82 -20 34 -33 36 -34 48 -15 6 11 8 21 2 25 -5 3 -8 18 -8 34
l1 29 23 -27 c30 -33 31 -13 2 24 -24 30 -35 85 -17 85 6 0 9 -6 6 -13 -3 -8
1 -14 9 -14 8 0 14 6 14 14 0 7 6 13 13 13 8 0 7 4 -3 10 -11 7 -12 10 -2 10
8 0 16 -8 19 -18 2 -10 14 -22 26 -28 12 -5 21 -16 19 -23 -1 -7 2 -9 8 -6 14
8 40 -24 33 -41 -6 -15 33 -38 42 -25 3 6 17 4 33 -5 15 -7 33 -14 40 -14 7 0
10 -4 7 -10 -3 -5 0 -10 7 -11 15 -1 73 -12 98 -19 3 -1 -5 -5 -17 -10 -19 -8
-23 -17 -23 -53 0 -24 7 -52 16 -63 14 -18 15 -18 4 4 -6 12 -10 40 -8 62 2
36 5 40 27 39 15 0 22 -2 16 -5 -5 -2 -10 -36 -9 -74 0 -39 -3 -73 -8 -76 -5
-3 -4 -12 2 -19 7 -8 7 -15 1 -19 -14 -9 -73 66 -61 78 5 5 5 16 1 25 -5 9 -7
24 -6 34 2 9 -1 15 -6 11 -5 -3 -7 -9 -4 -14 3 -5 1 -12 -5 -15 -8 -5 -7 -11
1 -21 14 -17 -2 -19 -19 -2 -6 6 -14 9 -18 6 -3 -4 4 -16 15 -27 11 -11 18
-27 15 -35 -3 -8 11 -29 32 -50 29 -28 35 -39 25 -45 -9 -6 -10 -11 -2 -15 6
-4 11 -2 11 5 0 21 30 -12 31 -35 0 -11 3 -15 6 -9 7 20 93 -158 93 -194 0
-17 5 -35 10 -38 6 -3 10 -15 10 -27 0 -11 11 -34 25 -50 14 -17 23 -33 21
-36 -10 -9 -32 16 -46 53 -7 19 -17 35 -22 35 -4 0 -8 6 -8 14 0 7 -18 46 -40
86 -22 40 -40 76 -40 80 0 3 -15 17 -32 30 l-33 24 37 -44 c21 -24 36 -45 34
-48 -3 -2 5 -21 18 -41 33 -52 57 -119 46 -126 -5 -3 -6 -13 -3 -23 4 -13 2
-13 -10 3 -20 24 -22 49 -4 39 9 -6 9 -5 0 7 -6 8 -13 23 -16 34 -2 11 -4 8
-2 -8 1 -15 0 -27 -2 -27 -1 0 -18 31 -38 69 -19 38 -39 73 -45 76 -6 4 0 -15
13 -41 14 -27 35 -71 47 -99 12 -27 31 -68 42 -90 l19 -40 -21 25 c-11 14 -24
30 -29 36 -6 7 -7 15 -4 18 4 3 1 6 -5 6 -7 0 -12 9 -12 20 0 11 -11 27 -25
36 -19 12 -24 22 -19 38 4 11 3 18 -1 14 -5 -4 -14 -3 -22 3 -10 9 -11 15 -1
28 11 15 10 15 -5 0 -17 -15 -16 -19 18 -78 19 -35 35 -66 35 -69 0 -3 12 -18
26 -33 14 -14 27 -35 28 -45 2 -14 11 -18 34 -18 17 1 29 -2 27 -7 -6 -8 14
-24 30 -24 5 0 14 -10 20 -22 9 -17 14 -20 23 -11 9 9 12 8 12 -5 0 -9 -4 -17
-9 -17 -5 0 -12 -7 -15 -16 -4 -10 -2 -13 7 -8 9 6 9 4 1 -7 -6 -8 -15 -32
-18 -54 -4 -22 -14 -60 -23 -85 -9 -26 -17 -95 -19 -165 -3 -66 -6 -140 -8
-165 -2 -25 -5 -64 -7 -87 -1 -23 -7 -41 -13 -40 -6 1 -10 -3 -11 -10 0 -6 -3
-15 -7 -19 -4 -4 -3 -13 3 -21 6 -7 8 -13 4 -13 -4 0 -1 -7 6 -17 17 -20 17
-16 -1 -39 -14 -17 -14 -18 2 -6 9 7 15 22 13 32 -2 10 3 24 11 30 7 7 12 16
9 20 -3 5 -1 11 4 15 6 3 7 15 2 27 -4 12 -4 38 0 58 5 19 9 56 9 81 0 40 18
78 31 65 2 -2 5 11 6 30 2 37 -4 42 -21 18 -10 -13 -12 -11 -14 10 -1 14 3 28
9 31 6 5 6 12 -3 23 -10 12 -10 14 0 8 12 -7 17 16 15 69 -1 19 19 125 33 172
7 25 47 28 66 6 13 -16 42 -17 33 -2 -4 6 -10 8 -13 5 -3 -3 -14 2 -25 11 -10
10 -22 18 -26 18 -11 0 0 50 16 68 15 16 17 16 37 0 19 -15 18 -15 -1 7 -21
22 -23 23 -41 7 -30 -27 -38 -19 -11 11 22 24 26 37 28 112 1 47 3 94 5 105 2
11 1 25 -3 30 -3 6 -6 16 -7 23 -2 8 -6 21 -10 30 -4 9 -8 20 -8 24 -2 17 -14
17 -19 -1 -3 -12 0 -19 7 -18 14 2 20 -218 6 -242 -5 -10 -7 16 -4 67 3 69 1
82 -12 82 -8 0 -13 -4 -9 -9 3 -5 1 -12 -4 -15 -10 -7 -24 10 -27 32 -2 10 1
10 11 2 16 -13 28 2 31 41 2 23 -1 25 -23 21 -17 -3 -33 4 -55 24 -25 23 -30
25 -23 9 16 -42 16 -59 -1 -28 -21 41 -11 55 54 79 26 10 54 23 62 30 8 7 27
15 42 19 14 4 35 15 46 26 12 10 36 19 54 21 18 1 41 6 52 11 13 6 16 6 12 -2
-17 -27 26 -8 59 26 l37 38 -8 -30 c-9 -39 -14 -46 -24 -40 -4 3 -13 -2 -20
-10 -7 -8 -9 -15 -5 -15 4 0 -6 -15 -22 -34 -17 -18 -56 -82 -88 -142 -32 -60
-61 -111 -65 -114 -12 -9 -30 -48 -30 -66 0 -15 3 -14 19 5 l19 21 6 -26 c5
-17 12 -24 21 -20 8 3 15 1 15 -4 0 -6 5 -10 12 -10 6 0 27 -17 47 -39 49 -52
124 -93 141 -78 10 9 11 9 6 0 -4 -7 -3 -13 2 -13 9 0 67 25 92 40 55 34 79
41 99 31 32 -18 38 -13 11 12 -33 29 -78 52 -87 44 -3 -4 0 -7 8 -7 8 0 20 -5
27 -12 9 -9 3 -15 -26 -25 -20 -7 -50 -12 -67 -12 l-30 1 30 8 c25 7 21 8 -25
9 -73 0 -90 3 -84 13 3 5 10 6 15 3 5 -4 9 -1 9 4 0 14 53 14 67 0 8 -8 13 -7
18 1 11 17 -12 28 -49 24 -24 -3 -27 -2 -11 5 11 5 23 7 28 4 4 -2 7 1 7 6 0
13 42 10 52 -4 5 -6 12 -5 20 3 9 9 9 12 0 12 -6 0 -9 6 -7 13 10 24 85 11 85
-16 0 -8 -3 -8 -12 1 -7 7 -16 12 -21 12 -9 0 52 -54 62 -56 15 -2 48 -19 66
-33 11 -8 -14 19 -55 61 -70 72 -90 106 -65 115 6 2 22 -7 35 -19 61 -53 73
-62 65 -48 -5 8 3 5 17 -7 13 -13 29 -23 35 -23 6 0 16 -7 23 -15 7 -8 16 -13
20 -10 5 3 12 0 15 -5 7 -11 45 -29 56 -26 4 0 15 -6 25 -15 11 -9 30 -20 44
-24 14 -4 32 -13 40 -20 15 -12 68 -32 107 -39 12 -3 20 1 20 9 0 7 -7 12 -16
10 -9 -1 -38 6 -66 16 -55 19 -52 20 51 21 76 1 98 -6 90 -28 -3 -7 -1 -16 4
-19 5 -3 7 -12 3 -20 -3 -8 -1 -15 5 -15 5 0 9 10 8 21 -1 31 29 33 48 3 21
-31 21 -32 -11 -37 -17 -2 -8 -5 22 -6 28 -1 67 -5 88 -10 32 -8 39 -6 48 10
5 10 19 19 29 19 11 0 20 7 20 15 0 9 11 20 25 25 26 10 35 40 12 40 -7 0 -28
16 -47 35 -19 19 -38 35 -42 35 -5 0 -43 27 -86 60 -42 32 -88 67 -101 77 -13
10 -31 26 -39 36 -9 9 -20 17 -23 17 -4 0 -21 14 -38 31 -19 18 -36 27 -43 23
-7 -4 -10 -3 -5 1 4 5 0 17 -9 27 -13 13 -21 15 -30 7 -9 -8 -11 -5 -7 10 3
12 1 21 -5 21 -5 0 -36 25 -68 56 -119 112 -183 166 -194 159 -5 -3 -15 6 -20
20 -5 14 -14 24 -19 20 -5 -3 -12 -1 -16 5 -3 5 -1 10 5 10 6 0 8 5 5 10 -11
19 -20 10 -54 -55 -19 -36 -39 -65 -43 -65 -4 0 -8 -6 -8 -12 -1 -7 -7 -26
-14 -43 l-13 -30 -1 50 c0 33 6 58 19 76 10 15 19 31 19 36 0 5 8 18 18 29 30
35 44 64 30 64 -16 0 -68 -64 -68 -82 0 -8 -8 -25 -17 -38 -10 -14 -23 -36
-30 -50 -9 -19 -12 -21 -12 -7 -1 23 17 58 38 74 9 6 13 14 9 18 -9 10 -81
-72 -95 -109 -15 -40 -17 -20 -2 25 6 19 32 53 57 76 26 23 44 44 42 47 -3 2
-33 -22 -68 -54 -85 -80 -79 -62 9 25 47 47 77 69 90 67 27 -5 24 12 -12 53
-39 44 -49 44 -49 1 0 -33 -45 -104 -58 -92 -3 3 -10 2 -17 -4 -15 -13 -76 25
-83 52 -5 21 -6 21 -13 2 -5 -12 -8 -2 -8 31 0 29 3 43 7 32 6 -13 11 -7 21
27 7 25 20 51 28 58 8 6 22 30 31 52 15 39 16 40 23 16 5 -19 8 -11 10 30 l2
55 7 -65 7 -65 1 66 c1 37 9 86 17 109 8 24 13 45 10 48 -3 3 -6 3 -8 1 -1 -2
-12 -18 -23 -34 -12 -17 -34 -57 -49 -90 -15 -33 -39 -83 -52 -112 -14 -29
-24 -55 -24 -58 1 -3 -5 -13 -14 -21 -8 -9 -15 -23 -15 -32 0 -9 -3 -27 -6
-39 -4 -14 1 -28 15 -42 11 -11 23 -35 26 -52 3 -18 8 -36 11 -41 3 -4 1 -8
-5 -8 -5 0 -12 -8 -14 -17 -3 -10 -6 5 -7 32 -1 36 -4 44 -9 30 -5 -11 -7 -32
-6 -46 1 -14 -3 -26 -9 -26 -6 0 -12 15 -13 34 -1 23 2 31 10 27 8 -5 8 -3 0
7 -7 7 -13 22 -13 33 0 17 2 18 10 6 5 -8 10 -10 10 -4 0 6 -6 16 -13 23 -11
8 -17 -1 -31 -46 -10 -32 -19 -62 -20 -68 -1 -5 -5 -16 -10 -23 -5 -8 -4 -18
3 -25 8 -8 11 -8 11 2 0 7 5 9 11 5 16 -9 -11 -25 -32 -18 -9 2 -19 -2 -23
-11 -7 -20 -69 -20 -86 0 -6 8 -17 13 -22 12 -7 -1 -12 22 -13 56 -1 31 1 57
4 57 18 0 -3 72 -26 90 -30 23 -51 27 -34 6 7 -8 8 -17 3 -20 -5 -3 -7 -28 -5
-57 2 -44 1 -49 -12 -39 -10 8 -11 18 -5 36 9 22 5 26 -35 44 -25 11 -45 27
-45 34 0 16 24 38 34 31 3 -3 1 2 -6 10 -7 8 -27 16 -45 20 -18 3 -45 10 -60
16 -15 6 -28 10 -28 9 0 -2 -31 9 -68 22 -37 14 -87 73 -87 103 0 14 5 34 10
45 6 11 14 29 20 40 14 28 -6 36 -21 8 -7 -13 -16 -36 -20 -53 -7 -28 -7 -29
-9 -5 l-2 25 -7 -26 c-5 -22 -8 -24 -18 -14 -9 10 -5 22 19 54 19 26 24 39 14
35 -12 -5 -15 -2 -10 10 6 16 34 23 34 8 0 -5 6 -9 13 -9 6 0 48 -18 92 -39
76 -37 84 -39 180 -39 76 0 108 4 134 18 19 9 38 17 43 17 16 0 103 44 142 72
40 29 126 134 126 154 0 6 9 19 21 30 30 27 59 88 60 126 l0 33 14 -37 c10
-28 11 -45 3 -72 -6 -19 -15 -33 -20 -30 -4 3 -8 -8 -8 -24 0 -16 -6 -50 -14
-75 -14 -46 -8 -69 12 -44 5 6 12 21 15 32 4 15 5 13 6 -7 1 -18 7 -28 16 -28
8 0 15 5 15 10 0 6 11 10 25 10 28 0 95 30 95 42 0 5 24 34 54 64 30 31 78 84
107 118 33 38 72 71 102 85 34 17 49 30 52 50 3 14 15 44 25 65 22 42 18 62
-4 30 -37 -50 -45 -58 -52 -52 -4 4 -1 15 7 25 12 15 12 16 -4 10 -15 -6 -16
-4 -5 16 10 19 13 20 16 5 2 -10 7 -18 12 -18 13 0 21 30 11 48 -12 25 -2 42
25 42 13 0 24 3 25 8 0 4 2 23 4 42 2 19 -2 42 -8 50 -7 8 -2 7 10 -3 24 -21
34 -12 22 21 -12 31 -39 40 -55 17 -21 -28 -29 -9 -17 36 6 22 8 37 5 34 -3
-2 -11 0 -18 6 -10 8 -13 0 -12 -41 0 -64 -18 -88 -27 -37 -4 20 -3 42 1 49
13 21 13 38 1 39 -7 0 -24 2 -39 3 -25 1 -26 0 -11 -16 18 -20 28 -24 17 -6
-4 7 -3 8 4 4 22 -13 14 -71 -14 -101 -30 -33 -37 -28 -38 25 0 22 -4 40 -9
40 -5 0 -7 -6 -4 -12 2 -7 -3 -22 -12 -32 -9 -11 -11 -16 -4 -13 13 8 12 -18
-2 -30 -4 -4 -5 -2 -1 5 4 6 2 12 -3 12 -6 0 -11 -6 -11 -12 -1 -7 -7 -26 -15
-43 -14 -28 -14 -29 -12 -5 1 19 -3 25 -18 25 -17 0 -20 6 -19 43 1 37 -1 42
-17 37 -12 -4 -21 1 -29 15 -6 11 -15 18 -19 15 -10 -5 -25 25 -16 33 2 3 11
-1 20 -8 8 -7 16 -9 16 -4 1 5 2 14 3 19 2 15 21 12 20 -2 -1 -7 2 -11 6 -8
12 7 6 63 -8 77 -6 6 -19 13 -27 14 -13 2 -14 -1 -4 -12 6 -8 7 -14 2 -14 -5
0 -10 -7 -10 -16 0 -12 5 -10 19 7 11 14 17 18 16 9 -2 -8 -11 -21 -20 -28
-15 -11 -20 -10 -37 7 -11 11 -16 22 -13 26 4 4 0 5 -8 3 -8 -2 -14 3 -15 11
0 8 -8 15 -18 17 -16 2 -17 0 -4 -19 34 -54 32 -50 35 -94 1 -13 8 -23 15 -23
8 0 22 -8 31 -19 16 -18 16 -20 -11 -40 -15 -11 -34 -26 -40 -31 -7 -6 -13 -7
-13 -2 0 4 6 14 13 21 10 10 9 12 -3 9 -8 -2 -14 5 -15 17 0 13 -6 19 -16 17
-12 -2 -15 6 -14 32 1 18 5 38 8 43 4 6 3 13 -1 18 -4 4 -7 14 -8 23 -1 10 -2
30 -3 46 -1 24 -3 27 -16 16 -11 -9 -14 -27 -11 -66 2 -30 1 -56 -4 -59 -4 -2
-6 7 -4 20 1 14 -2 25 -7 25 -4 0 -6 7 -2 16 4 12 2 15 -8 12 -8 -3 -13 -12
-11 -22 2 -11 -3 -15 -15 -13 -20 3 -28 15 -17 25 4 4 4 1 -1 -7 -5 -10 -4
-12 4 -7 6 4 9 12 5 17 -3 5 -10 7 -15 4 -5 -4 -12 2 -16 12 -4 10 -17 26 -30
36 -14 11 -20 24 -16 34 4 11 2 14 -8 11 -8 -3 -12 -12 -10 -19 2 -8 4 -25 5
-37 1 -13 10 -28 19 -33 25 -14 23 -69 -3 -76 -11 -3 -20 -10 -20 -15 0 -5 -4
-7 -8 -4 -5 3 -22 -2 -38 -10 -16 -9 -30 -15 -32 -14 -1 1 -16 -2 -33 -5 -20
-5 -35 -3 -42 5 -9 10 -9 11 0 6 6 -3 15 -2 18 4 4 6 3 9 -2 8 -5 -2 -38 27
-74 65 -58 61 -65 73 -34 68 21 -4 -22 27 -51 37 -22 7 -37 6 -55 -4 -13 -7
-48 -18 -76 -24 -52 -11 -80 -30 -46 -30 17 -1 17 -1 1 -11 -10 -5 -18 -15
-18 -20 0 -6 -10 -25 -22 -42 -27 -38 -32 -55 -20 -71 5 -6 12 -23 16 -39 4
-15 22 -45 41 -66 19 -21 32 -41 28 -45 -3 -3 1 -6 10 -6 9 0 17 -4 17 -8 0
-15 64 -39 97 -36 17 1 45 13 62 25 31 23 80 87 85 111 7 31 19 48 36 48 10 0
33 6 51 14 19 7 42 12 52 11 9 -2 15 0 12 5 -3 4 9 10 26 12 35 5 50 -8 17
-15 l-23 -4 23 -2 c21 -1 22 -5 22 -70 0 -39 5 -73 10 -76 6 -4 10 7 10 24 0
51 15 35 18 -19 1 -33 -4 -62 -18 -87 -22 -44 -30 -114 -14 -120 7 -2 12 6 13
19 1 47 5 56 21 53 13 -2 16 4 15 27 -1 21 7 38 27 59 39 38 60 38 23 -1 -16
-16 -25 -30 -21 -30 9 0 52 52 49 60 -3 12 19 40 32 40 8 0 15 4 15 8 0 5 12
14 26 20 14 7 22 17 19 22 -9 15 4 30 20 24 8 -4 12 -11 8 -18 -4 -6 -8 -17
-10 -25 -1 -10 1 -11 10 -2 6 6 18 11 26 11 12 0 9 -7 -9 -25 -40 -39 -52 -55
-40 -55 22 0 9 -27 -22 -45 -18 -11 -35 -20 -38 -20 -10 0 -54 -35 -44 -35 5
0 16 6 23 13 6 6 15 12 19 13 24 3 53 23 99 67 66 64 79 55 49 -33 -42 -121
-74 -175 -114 -197 -20 -11 -41 -19 -47 -17 -36 7 -54 19 -66 42 l-13 27 -4
-29 c-3 -22 -6 -26 -13 -15 -6 10 -9 5 -9 -18 0 -45 -9 -63 -37 -74 -15 -6
-22 -14 -17 -21 4 -7 4 -10 -1 -6 -11 10 -35 -10 -35 -30 0 -12 4 -12 22 4 32
28 11 -4 -34 -55 -42 -45 -48 -49 -48 -25 0 14 -3 14 -15 4 -9 -7 -14 -19 -11
-25 2 -7 1 -18 -4 -25 -13 -21 -23 82 -11 113 13 35 13 37 1 37 -5 0 -9 -3 -8
-7 1 -5 -4 -21 -10 -36 -7 -16 -12 -33 -12 -38 0 -5 -4 -9 -9 -9 -5 0 -13 -10
-17 -22 -4 -13 -17 -33 -30 -46 -12 -13 -25 -33 -28 -45 -3 -14 -4 -11 -3 8 1
18 -3 29 -10 28 -6 -1 -9 7 -6 20 l4 22 -13 -23 c-8 -12 -18 -19 -23 -15 -4 4
-6 3 -2 -2 3 -6 -3 -28 -13 -50 l-19 -40 -1 36 c0 19 3 39 8 45 4 5 0 3 -8 -4
-8 -7 -16 -22 -16 -32 -1 -11 -2 -32 -3 -47 -2 -27 -2 -27 -17 -8 -14 19 -16
19 -28 3 -7 -10 -16 -15 -19 -11 -4 3 -11 -6 -16 -21 -8 -19 -18 -26 -37 -26
-18 0 -24 4 -21 13 4 10 -5 13 -28 13 -24 -1 -31 -4 -24 -13 11 -12 -6 -13
-26 -2 -5 4 -18 5 -27 4 -28 -5 -93 60 -127 125 -35 70 -37 78 -16 60 13 -11
14 -10 9 6 -6 16 -3 15 19 -5 23 -20 37 -25 85 -24 94 1 98 3 97 37 0 17 5 30
11 29 6 -1 11 5 11 12 0 10 -4 12 -12 5 -7 -5 -16 -6 -20 -2 -5 4 -5 2 -2 -4
4 -7 0 -15 -9 -18 -24 -9 -34 -7 -32 5 2 6 -9 13 -23 15 -18 3 -26 0 -26 -11
0 -8 4 -15 9 -15 4 0 8 4 8 8 0 5 7 9 16 9 14 0 14 -2 -2 -14 -30 -22 -53 -17
-48 12 3 18 0 25 -12 25 -10 0 -14 -6 -11 -14 3 -8 0 -20 -8 -26 -10 -9 -13
-7 -11 7 2 10 -6 26 -17 36 -11 9 -17 20 -13 25 4 4 46 8 93 8 47 1 89 6 96
13 6 6 31 10 56 10 46 -2 46 -2 11 -9 l-35 -7 31 -2 c16 0 35 -6 42 -13 7 -7
12 -8 12 -4 0 5 7 3 15 -4 8 -7 13 -16 10 -19 -2 -4 2 -8 10 -8 9 0 11 4 6 11
-5 6 -7 19 -6 29 2 9 -1 15 -5 12 -9 -6 -23 12 -26 33 -5 29 -13 39 -36 45
l-23 6 24 -20 23 -19 -25 0 c-14 0 -51 14 -83 30 -31 17 -64 32 -73 33 -9 1
-23 6 -31 11 -12 7 -13 7 -2 -5 13 -14 17 -15 48 -18 8 0 12 -6 9 -11 -4 -6
-3 -9 2 -8 4 1 23 -6 41 -15 34 -18 35 -37 3 -37 -10 0 -31 -6 -46 -14 -15 -8
-34 -13 -43 -11 -9 2 -21 4 -25 4 -5 1 -5 6 -2 11 3 6 -3 10 -13 10 -11 0 -22
6 -24 13 -9 21 3 37 27 37 13 0 26 -6 28 -12 4 -10 6 -10 6 -1 1 7 8 10 16 7
8 -4 15 -1 15 5 0 6 -3 10 -7 10 -27 -4 -63 3 -58 11 3 6 -2 10 -12 11 -16 0
-16 1 2 9 16 7 14 9 -15 10 -32 1 -33 2 -15 12 21 13 26 14 62 16 13 1 22 7
20 14 -1 7 3 13 8 13 40 4 76 20 96 43 13 14 17 21 8 14 -16 -12 -39 -12 -69
1 -26 11 -100 15 -106 6 -3 -5 0 -9 6 -9 6 0 9 -4 5 -9 -3 -5 -1 -12 4 -15 5
-3 11 0 14 8 4 11 14 12 39 7 46 -11 47 -11 56 -12 10 -1 -39 -21 -62 -26 -10
-2 -29 3 -42 12 -13 8 -34 15 -47 15 -12 0 -28 5 -35 12 -18 18 -14 -3 5 -24
14 -16 14 -20 1 -35 -8 -10 -18 -26 -21 -35 -4 -10 -11 -18 -16 -18 -15 0 -33
-66 -28 -100 3 -16 1 -32 -4 -36 -5 -3 -9 10 -9 28 0 25 -3 29 -10 18 -8 -13
-10 -12 -10 3 0 10 -7 28 -15 41 -24 36 -36 84 -42 168 l-5 77 38 -1 c64 -1
85 2 80 11 -3 4 3 16 13 25 11 10 22 29 26 43 3 15 29 60 56 101 l50 74 -42
37 c-23 20 -49 40 -58 45 -9 5 -26 17 -37 28 -14 13 -24 16 -29 9 -3 -6 5 -15
18 -20 20 -8 25 -16 23 -41 -2 -23 2 -30 13 -27 9 2 15 9 13 16 -1 7 2 10 7 7
16 -10 5 -41 -13 -38 -9 2 -16 -1 -15 -5 3 -20 -2 -33 -14 -33 -13 0 -16 57
-4 77 4 6 3 14 -2 17 -5 4 -12 2 -16 -4 -4 -6 -10 -8 -15 -5 -5 3 -26 -10 -46
-30 -37 -37 -62 -41 -29 -5 10 11 19 28 20 37 5 37 18 63 31 63 8 0 14 5 14
10 0 6 -5 10 -12 10 -6 0 -3 8 7 20 10 11 22 17 26 14 5 -3 13 6 18 19 6 14
14 28 20 32 7 4 8 0 4 -11 -5 -14 -3 -15 18 -4 13 8 29 20 35 28 6 8 24 16 39
18 16 2 31 7 34 11 3 5 18 14 34 20 15 7 27 17 27 23 0 6 4 9 9 6 5 -3 14 1
21 9 7 8 19 15 26 15 8 0 14 4 14 8 0 7 80 50 98 53 4 0 12 5 18 10 6 5 32 8
57 7 l46 -3 -3 -45 c-1 -35 -6 -45 -19 -44 -9 1 -17 -2 -17 -7 0 -5 -11 -14
-25 -21 -13 -6 -21 -16 -18 -22 4 -6 0 -5 -9 2 -12 10 -18 9 -28 -3 -10 -12
-16 -13 -26 -4 -8 6 -11 16 -8 23 3 6 -7 -2 -22 -19 -27 -30 -27 -30 -5 -33
12 -2 30 0 39 4 20 8 29 10 58 12 12 1 33 14 48 28 14 15 26 23 26 19 0 -5 9
0 19 9 11 10 24 16 29 13 4 -3 15 3 22 14 13 18 37 28 27 12 -3 -5 -8 -26 -11
-48 -7 -40 -51 -99 -68 -89 -5 3 -4 12 3 20 6 8 8 14 5 14 -4 0 -19 -13 -33
-30 -13 -16 -31 -30 -38 -30 -8 0 -16 -4 -19 -9 -7 -11 13 -9 32 2 6 5 12 5
12 1 0 -4 9 1 21 12 12 10 23 18 25 17 2 -2 6 -2 9 -2 3 1 10 2 16 3 7 0 15
10 19 21 7 19 8 19 18 -5 5 -14 8 -32 7 -42 -2 -10 2 -15 13 -13 9 1 22 -2 29
-7 7 -5 14 -5 18 2 3 6 12 7 18 3 23 -14 74 -13 87 1 10 13 8 15 -8 11 -11 -2
-31 3 -45 10 -15 7 -34 15 -44 17 -10 2 -19 9 -19 16 -4 34 -5 36 -15 19 -5
-9 -7 -22 -3 -29 5 -7 3 -8 -5 -3 -8 4 -10 17 -7 31 5 19 3 22 -10 17 -14 -5
-15 -3 -4 17 7 12 12 37 12 56 0 18 5 37 12 42 10 7 48 9 61 2 3 -1 18 -3 34
-4 16 0 33 -4 37 -8 4 -4 13 -3 21 3 7 6 13 8 13 5 0 -12 34 26 36 39 2 13
-33 14 -53 2 -7 -5 -13 -5 -13 -1 0 4 -10 -1 -22 -12 -20 -18 -37 -22 -53 -14
-14 7 -51 5 -62 -3 -7 -5 -13 -6 -13 -2 0 4 -6 2 -14 -4 -9 -7 -17 -8 -20 -2
-3 5 -14 7 -25 4 -20 -5 -36 21 -24 39 3 6 1 8 -4 5 -6 -4 -18 2 -27 12 -10
11 -25 18 -34 16 -9 -1 -22 1 -28 6 -7 5 -11 3 -11 -5 0 -8 8 -13 18 -11 10 2
21 0 23 -4 6 -10 -40 -8 -50 2 -4 4 -14 1 -22 -6 -13 -10 -14 -9 -7 3 4 8 -4
4 -18 -9 -15 -13 -23 -29 -20 -35 4 -6 0 -5 -9 2 -8 6 -14 23 -12 37 1 14 -2
25 -7 25 -4 0 -6 7 -3 15 4 8 11 12 18 8 6 -3 7 -2 3 3 -8 9 -12 10 -39 13 -9
1 -8 4 2 11 10 6 11 10 3 10 -7 0 -13 7 -13 16 0 10 4 12 13 7 6 -4 19 -8 27
-9 19 -1 51 -14 68 -28 25 -18 55 -17 74 4 11 11 23 18 27 15 5 -2 14 2 20 9
10 12 9 14 -6 11 -10 -2 -18 -4 -18 -5 0 -10 -37 -5 -46 6 -9 11 -15 11 -25 3
-14 -11 -15 -10 -18 11 0 6 -4 10 -8 10 -5 0 -11 0 -14 0 -4 0 -1 -6 5 -13 15
-19 3 -27 -25 -17 -13 5 -24 7 -24 4 0 -4 -7 -1 -15 6 -8 7 -15 9 -15 5 0 -4
-6 -2 -13 4 -8 6 -24 12 -38 15 -13 2 -23 8 -22 14 1 5 -7 18 -17 27 -11 10
-20 14 -20 10 0 -4 -9 0 -20 10 -11 10 -20 15 -20 10 0 -4 -8 -1 -17 6 -15 12
-16 12 -8 -1 10 -16 12 -24 19 -77 4 -23 1 -33 -8 -33 -15 0 -39 24 -31 31 2
3 -11 5 -30 5 -18 0 -32 -4 -29 -8 2 -4 13 -5 23 -3 11 2 27 -5 37 -16 9 -10
22 -19 28 -19 6 0 24 -14 39 -32 15 -18 27 -26 26 -18 -3 27 1 40 11 40 6 0
10 -7 8 -16 -2 -10 4 -18 14 -19 13 -3 15 1 8 19 -6 17 -5 23 5 23 8 0 14 -7
13 -16 -1 -9 0 -27 0 -40 2 -20 4 -21 17 -11 8 7 12 16 9 21 -3 5 -1 9 4 9 5
0 10 -22 11 -49 1 -46 0 -48 -24 -48 -26 0 -51 28 -37 42 4 4 -8 -1 -25 -12
-18 -10 -33 -26 -33 -35 0 -21 -28 -39 -95 -63 -27 -10 -58 -25 -67 -33 -10
-8 -18 -12 -18 -9 0 4 -15 -2 -32 -13 -39 -24 -48 -25 -48 -5 0 8 -6 12 -13 9
-8 -3 -13 -15 -13 -27 1 -13 -5 -22 -14 -22 -8 0 -26 -10 -40 -22 -26 -24 -40
-29 -40 -14 0 5 -8 7 -17 5 -15 -4 -18 2 -17 35 0 22 3 43 5 46 6 5 9 -15 9
-52 0 -23 18 -27 32 -8 5 6 8 5 8 -3 0 -7 5 -10 10 -7 20 12 10 27 -14 21 -16
-4 -24 -2 -22 7 1 10 11 19 19 16 19 -8 54 -3 54 7 0 7 -5 12 -10 11 -5 -1
-11 8 -13 21 -2 13 0 21 5 18 4 -3 16 3 26 14 10 11 23 17 29 13 6 -3 7 -2 3
3 -5 5 -13 10 -18 10 -20 3 -21 4 -11 17 6 6 11 17 12 22 1 6 7 9 14 7 6 -2 8
0 4 4 -4 4 -3 13 3 20 7 9 -1 8 -22 -3 -19 -10 -43 -19 -53 -20 -10 -2 -39
-12 -64 -23 -57 -25 -60 -25 -57 4 3 19 -1 23 -19 20 -20 -4 -20 -4 2 5 24 11
31 37 8 28 -8 -3 -20 1 -27 9 -10 13 -10 17 2 25 13 8 11 10 -20 13 -8 0 -17
8 -19 16 -5 13 -3 13 11 1 11 -9 17 -10 17 -2 0 6 8 11 18 12 10 0 12 3 5 6
-7 2 -13 11 -13 19 0 8 12 1 29 -18 19 -21 27 -41 26 -60 -3 -30 9 -38 19 -12
5 13 9 14 21 4 8 -7 15 -9 15 -5 0 5 9 0 19 -9 20 -18 24 -5 8 21 -4 6 -2 15
4 19 8 5 9 3 4 -7 -8 -12 -6 -12 8 0 22 17 21 21 -2 16 -27 -5 -41 15 -30 42
6 16 14 21 29 18 18 -4 20 -2 10 11 -10 11 -16 11 -26 3 -11 -9 -15 -7 -20 7
-4 11 -12 25 -18 33 -5 7 -11 20 -12 28 -2 12 0 12 14 1 9 -7 14 -9 10 -4 -4
4 4 20 18 34 13 15 24 30 24 34 0 4 5 19 10 33 8 22 13 25 24 16 10 -8 16 -9
21 -1 3 5 -1 10 -10 10 -13 0 -14 4 -4 23 8 15 -2 9 -30 -18 -53 -51 -53 -32
0 24 l41 43 28 -27 c15 -15 27 -34 25 -43 -3 -22 14 -44 28 -35 6 3 7 1 3 -6
-4 -6 -11 -9 -16 -6 -5 3 -11 1 -15 -5 -4 -6 -12 -7 -18 -3 -7 3 -3 -3 7 -15
18 -21 29 -21 32 -1 1 5 2 12 3 16 0 3 10 -2 21 -12 11 -10 20 -15 20 -10 0 4
7 1 16 -6 23 -19 41 -19 56 -1 8 10 9 13 1 9 -6 -4 -14 -3 -18 2 -3 5 -14 8
-24 6 -11 -2 -32 10 -52 31 -18 19 -29 34 -25 34 5 0 4 6 -2 13 -6 6 -11 17
-12 22 -1 6 -6 9 -10 8 -4 -1 -8 13 -8 31 0 39 44 88 58 65 10 -15 -1 -48 -15
-46 -5 1 -9 7 -7 14 4 20 -6 15 -18 -7 -17 -31 15 -38 46 -10 13 13 25 20 25
17 3 -13 6 -22 18 -51 l12 -29 24 23 c13 12 23 25 23 29 -3 11 42 91 52 91 9
0 26 67 18 75 -2 2 -16 -11 -31 -28z m-236 -811 c-8 -9 -7 -13 5 -13 9 0 20
11 25 24 5 13 11 23 14 23 9 0 0 -46 -11 -61 -6 -8 -20 -34 -32 -59 -12 -25
-43 -67 -69 -93 -47 -49 -113 -101 -99 -79 4 7 2 12 -4 12 -15 0 -41 26 -33
34 10 10 25 7 18 -3 -3 -5 0 -13 6 -17 7 -4 9 -3 5 4 -3 6 -2 13 3 17 6 3 7
13 4 22 -4 11 -2 14 8 11 8 -3 14 -14 13 -25 l0 -21 28 21 c15 11 28 25 28 30
0 6 -9 2 -19 -7 -11 -10 -21 -13 -25 -7 -3 5 8 21 26 35 18 14 28 26 22 26 -6
0 -17 -7 -24 -15 -7 -8 -18 -15 -24 -15 -6 0 -22 -6 -36 -13 -40 -21 -62 -28
-55 -18 3 6 30 22 60 37 61 29 73 40 45 40 -10 0 -16 -5 -13 -10 4 -5 -1 -7
-11 -3 -10 4 -15 3 -11 -3 4 -6 -7 -10 -27 -9 -25 1 -28 3 -13 8 30 10 97 43
125 62 14 9 34 18 45 20 17 4 18 6 4 19 -14 12 -13 16 5 38 21 23 37 13 17
-12z m405 -1436 c-16 -5 -16 -8 -3 -18 8 -7 13 -25 12 -42 -3 -31 9 -48 19
-31 4 5 3 12 -2 15 -4 2 -7 17 -6 33 1 15 3 34 3 41 1 19 38 14 54 -8 8 -11
17 -17 20 -14 11 11 36 -16 30 -32 -3 -8 3 -24 13 -35 24 -27 27 -69 4 -69
-10 0 -29 -9 -44 -21 -14 -11 -26 -18 -26 -14 0 3 -13 -1 -28 -9 -34 -18 -44
-12 -68 39 -10 22 -24 46 -31 53 -20 20 -16 37 5 21 16 -13 16 -13 -1 7 -9 11
-14 24 -10 29 5 4 2 5 -5 1 -7 -4 -10 -12 -7 -17 15 -24 -16 -5 -44 26 -41 47
-40 57 3 16 23 -22 36 -29 41 -21 5 8 14 5 30 -10 l22 -21 -1 25 c-1 14 -5 28
-8 32 -12 11 15 42 31 36 12 -5 12 -7 -3 -12z m505 -160 c6 0 8 4 4 9 -3 5 0
13 6 17 9 5 10 0 6 -16 -4 -18 5 -34 43 -74 36 -38 46 -55 40 -67 -8 -13 -3
-16 28 -16 30 -1 33 0 12 6 -30 8 -34 44 -6 49 13 3 16 0 11 -9 -5 -8 -4 -10
4 -5 16 10 41 -12 34 -30 -4 -11 0 -14 18 -11 13 2 31 6 39 10 22 8 50 5 44
-5 -3 -5 -9 -6 -13 -4 -4 3 -8 -1 -9 -9 -1 -8 -3 -21 -4 -28 -1 -8 -7 -14 -14
-14 -7 0 -11 4 -8 9 3 4 -2 8 -11 8 -9 0 -13 -4 -10 -10 4 -6 -6 -10 -22 -10
-40 0 -74 -11 -67 -21 3 -5 -3 -12 -13 -16 -10 -3 -36 -18 -58 -33 -22 -15
-45 -25 -52 -23 -6 2 -14 -1 -18 -6 -3 -6 -10 -11 -14 -11 -5 0 3 21 16 48 13
26 25 45 27 42 2 -3 10 1 19 9 9 7 14 18 10 24 -3 6 -1 7 6 3 6 -4 9 -12 5
-17 -3 -5 -2 -9 3 -8 4 1 10 0 13 -1 19 -7 39 -7 34 1 -3 5 -9 7 -14 4 -19
-12 -23 46 -5 75 7 12 6 13 -6 3 -11 -9 -20 -6 -42 13 -15 13 -23 24 -17 24 6
0 8 5 4 12 -4 7 -3 8 5 4 6 -4 8 -12 5 -18 -4 -6 -2 -8 4 -4 6 3 13 2 17 -4 3
-5 11 -10 17 -10 6 0 -5 13 -25 29 -20 15 -34 31 -31 34 3 3 -3 3 -14 0 -14
-3 -30 4 -48 22 l-27 27 24 13 c20 11 25 11 32 -1 4 -8 13 -14 18 -14z"/>
<path d="M4905 4419 c-11 -4 -15 -8 -10 -8 6 -1 11 -10 11 -21 0 -13 -6 -20
-16 -18 -8 2 -15 13 -14 25 1 18 -2 20 -21 13 -13 -5 -26 -6 -31 -2 -4 4 -4 2
0 -5 6 -11 -8 -26 -26 -29 -5 -1 -9 -2 -10 -4 -2 -1 -12 -3 -22 -5 -32 -6 -36
-27 -10 -58 22 -26 28 -40 26 -58 -1 -4 10 -17 23 -29 14 -13 25 -20 25 -16 0
5 8 2 18 -5 9 -7 2 3 -16 22 -27 30 -30 38 -19 47 8 7 16 10 19 7 3 -3 11 2
18 10 12 14 16 13 41 -11 19 -18 27 -22 25 -10 -3 19 -14 31 -29 31 -7 1 -11
7 -9 15 2 8 4 23 5 32 1 20 17 25 17 6 0 -23 20 16 20 40 0 12 5 22 11 22 5 0
7 -4 4 -10 -9 -15 4 -12 21 5 9 8 12 15 7 16 -4 0 -15 2 -23 3 -8 2 -24 0 -35
-5z"/>
<path d="M4589 4378 c-2 -3 -8 -43 -11 -65 -1 -6 -8 -9 -15 -6 -8 3 -21 -1
-31 -10 -11 -9 -34 -14 -64 -13 -26 1 -45 -1 -43 -5 5 -7 -25 -37 -40 -39 -35
-7 -67 -62 -44 -76 6 -4 5 -12 -3 -22 -9 -12 -6 -11 10 2 13 11 19 23 14 30
-22 30 5 55 36 33 6 -5 12 -6 12 -2 0 4 7 2 15 -5 8 -7 13 -16 10 -20 -3 -5 3
-7 12 -5 10 1 23 0 28 -4 16 -9 35 -10 40 -1 3 5 -4 7 -15 5 -16 -3 -20 0 -18
13 2 11 11 16 25 14 19 -3 21 1 17 24 -7 36 -13 46 -26 38 -7 -4 -8 -2 -4 5 6
8 12 9 20 2 7 -6 16 -8 20 -4 3 4 5 -17 4 -45 -2 -28 1 -53 7 -54 11 -3 65 74
59 84 -2 4 0 9 6 13 6 4 8 11 4 16 -3 5 -10 6 -16 3 -7 -4 -8 -2 -4 4 4 6 12
9 19 6 7 -2 17 9 24 27 7 17 16 28 21 25 5 -3 16 2 25 12 15 16 13 17 -24 18
-31 1 -39 -3 -39 -17 0 -10 -5 -21 -12 -25 -6 -4 -8 -3 -4 4 3 6 2 13 -4 17
-6 4 -8 11 -5 16 4 5 4 9 1 9 -3 0 -7 -1 -7 -2z"/>
<path d="M4989 3999 c-11 -8 -11 -9 3 -7 9 2 17 -1 17 -7 1 -5 -3 -10 -8 -10
-6 0 -16 -6 -22 -12 -10 -10 -3 -12 34 -8 50 5 59 -3 27 -23 -11 -7 -20 -17
-20 -23 0 -7 6 -7 17 2 10 8 3 -4 -15 -26 -19 -23 -27 -42 -21 -45 6 -4 4 -12
-6 -20 -11 -9 -14 -24 -11 -52 4 -28 2 -37 -7 -32 -9 5 -9 3 0 -6 14 -15 52
-21 68 -12 6 4 19 8 29 9 35 6 30 13 -8 13 -33 0 -37 3 -34 23 5 34 78 68 78
35 0 -9 3 -9 12 0 15 15 31 16 22 0 -5 -8 -2 -9 9 -5 10 4 17 1 17 -6 0 -8 4
-6 10 3 16 24 11 39 -10 35 -11 -2 -18 0 -15 5 7 12 -5 41 -15 35 -5 -3 -7
-14 -5 -25 2 -12 0 -18 -4 -16 -12 8 -8 61 5 59 6 -1 11 13 11 32 0 26 -3 32
-12 25 -7 -5 -16 -6 -20 -2 -5 4 -5 2 -1 -5 4 -7 -2 -17 -14 -23 -22 -12 -27
-1 -7 19 10 11 9 12 -1 6 -10 -5 -13 -2 -11 11 2 11 0 26 -5 34 -4 8 2 5 13
-8 11 -13 25 -20 32 -17 6 5 -2 15 -22 27 -23 14 -34 17 -37 9 -3 -9 -8 -9
-19 1 -20 16 -37 18 -54 7z"/>
<path d="M5017 2627 c-62 -26 -84 -41 -115 -79 -20 -26 -41 -47 -47 -48 -14
-1 -78 -60 -72 -66 6 -7 47 18 47 28 0 5 7 8 17 8 15 0 15 -1 0 -18 -16 -18
-16 -19 10 -19 16 0 42 -1 58 -2 26 -2 27 -4 10 -11 -19 -7 -19 -8 -2 -15 10
-4 20 -5 23 -2 3 3 19 1 36 -5 21 -8 26 -13 17 -19 -8 -5 -21 -1 -34 9 -20 17
-20 17 -1 -6 11 -12 22 -20 24 -17 3 3 16 -5 29 -17 13 -12 23 -18 23 -14 0 5
6 3 14 -3 9 -7 17 -8 20 -2 3 5 16 7 29 3 20 -5 21 -4 8 11 -7 9 -19 17 -26
17 -7 0 -18 7 -25 15 -7 9 -32 25 -56 35 -55 25 -104 67 -103 88 0 11 2 12 6
5 2 -7 9 -13 15 -13 5 0 17 -8 26 -18 10 -10 13 -12 8 -5 -12 18 9 17 28 -2
16 -17 32 -3 20 17 -5 7 -3 8 5 4 7 -5 10 -14 7 -22 -4 -9 4 -18 21 -25 15 -6
30 -13 33 -17 11 -16 50 -32 50 -21 0 6 5 7 13 2 6 -4 19 -8 27 -9 8 -1 25 -2
38 -3 13 0 20 -5 17 -11 -3 -5 1 -11 9 -11 17 -2 33 -5 41 -9 5 -2 18 -6 31
-9 4 0 2 -7 -4 -14 -8 -10 -3 -16 21 -26 18 -7 43 -19 57 -25 14 -6 45 -13 70
-15 56 -4 61 -7 56 -36 -4 -20 1 -25 25 -30 36 -8 44 -7 44 4 0 5 4 13 9 18 5
5 6 3 2 -4 -5 -9 1 -13 21 -13 19 0 24 3 15 9 -11 6 -9 9 7 14 11 2 22 2 26
-1 8 -9 35 -11 34 -4 -3 19 2 23 16 12 8 -6 23 -9 34 -5 23 7 35 32 15 32 -7
0 -11 -4 -8 -8 2 -4 0 -10 -5 -13 -5 -4 -12 -2 -15 3 -8 12 11 24 40 28 17 3
23 -3 26 -27 4 -28 3 -30 -31 -31 -27 -1 -30 -3 -12 -6 13 -3 31 -12 39 -20
13 -13 11 -14 -19 -8 -19 4 -59 9 -89 10 -55 3 -55 3 -10 -4 30 -5 37 -9 20
-10 l-25 -3 25 -8 25 -8 -27 -1 c-15 -1 -29 3 -32 8 -6 8 -66 21 -66 14 0 -2
19 -12 42 -23 l41 -18 -29 -5 c-24 -3 -21 -4 12 -6 22 0 44 -5 50 -10 5 -5 18
-11 29 -14 14 -3 10 -5 -10 -6 -17 0 -37 5 -44 12 -11 10 -13 10 -7 0 4 -8 1
-13 -8 -13 -9 0 -16 5 -16 11 0 6 -7 8 -16 5 -9 -3 -21 -3 -27 1 -18 11 -38
12 -31 2 3 -5 10 -9 15 -9 5 0 19 -9 31 -20 12 -11 28 -20 35 -20 8 0 12 -4 9
-8 -2 -4 10 -14 27 -22 l32 -14 -25 -6 c-25 -6 -25 -6 -4 -20 20 -13 20 -14
-19 -49 -36 -32 -63 -75 -59 -93 1 -5 -5 -8 -14 -8 -8 0 -12 -5 -8 -11 9 -15
62 39 67 68 1 11 9 28 16 37 19 22 150 84 194 90 33 5 37 4 37 -16 0 -17 7
-10 26 26 l26 48 -36 52 c-55 79 -132 160 -145 152 -7 -5 -9 -1 -5 8 4 10 -3
20 -20 27 -14 7 -26 16 -26 20 0 7 -83 59 -94 59 -17 0 -3 -19 17 -23 20 -4
19 -4 -4 -6 -33 -1 -87 24 -67 32 7 3 1 6 -14 6 -18 1 -29 8 -33 21 -4 12 -11
17 -18 13 -7 -4 -18 -8 -26 -10 -8 -1 -18 -9 -23 -18 -5 -8 -13 -13 -18 -10
-5 3 -11 1 -15 -5 -3 -5 -15 -10 -26 -10 -10 0 -19 -4 -19 -9 0 -4 -34 -9 -76
-10 -45 -1 -74 2 -70 7 3 5 -7 12 -22 15 -15 4 -44 22 -65 42 -21 19 -43 32
-49 29 -6 -4 -8 -2 -5 3 7 10 -20 40 -32 36 -12 -4 -51 9 -51 18 0 4 -9 6 -20
4 -11 -2 -22 0 -24 4 -6 10 40 8 50 -2 4 -4 13 -7 20 -7 10 0 11 6 5 23 -9 23
2 57 14 45 10 -9 60 7 61 20 1 7 2 17 3 23 1 7 24 10 66 7 36 -1 65 0 65 5 0
4 -35 7 -77 6 -64 0 -92 -6 -156 -32z"/>
<path d="M5264 2641 c4 -6 14 -11 22 -11 8 0 12 -4 9 -10 -3 -5 -2 -10 3 -10
5 0 9 -6 9 -14 0 -7 -7 -13 -16 -11 -9 1 -15 10 -13 19 2 9 -2 16 -7 16 -5 0
-8 -9 -6 -19 3 -17 -18 -46 -34 -46 -3 0 -6 -16 -7 -36 -2 -46 -12 -63 -28
-50 -9 7 -12 4 -12 -14 0 -28 6 -31 25 -12 10 10 11 9 6 -4 -4 -10 -1 -20 6
-25 8 -4 10 -3 5 4 -8 13 -10 13 77 14 34 0 67 5 74 10 7 5 20 8 30 6 13 -2 9
-8 -17 -20 -19 -10 -28 -18 -19 -18 8 0 20 5 27 12 7 7 12 9 12 5 0 -3 16 5
36 18 20 14 42 25 48 25 6 0 21 11 34 24 19 20 20 26 9 38 -8 7 -12 18 -10 24
4 11 -147 64 -183 64 -11 0 -24 4 -29 9 -16 15 -59 25 -51 12z"/>
<path d="M3191 2424 c-1 -6 6 -17 14 -24 9 -7 13 -15 11 -18 -10 -10 25 -63
37 -55 9 5 9 3 1 -8 -14 -20 -13 -23 27 -116 11 -23 19 -45 19 -48 0 -17 43
-97 63 -116 12 -12 15 -18 7 -14 -12 7 -13 6 -4 -6 22 -28 33 -76 21 -90 -10
-11 -9 -11 5 0 10 7 15 18 11 24 -3 6 -1 7 6 3 6 -4 9 -11 6 -15 -2 -5 5 -17
16 -27 25 -22 51 -69 43 -77 -8 -8 19 -3 34 6 6 5 12 5 12 1 0 -5 16 7 35 26
19 19 35 30 35 25 0 -5 11 2 25 15 22 21 29 20 27 -1 -1 -3 6 -6 13 -6 10 0
12 4 5 12 -5 7 -8 14 -5 17 3 3 -2 11 -12 19 -9 8 -14 9 -10 3 8 -14 -16 -37
-27 -26 -4 4 -6 3 -4 -3 1 -5 -1 -11 -5 -12 -5 0 -21 -13 -36 -27 -23 -22 -30
-24 -39 -13 -7 8 -9 17 -6 20 3 3 3 11 -1 17 -12 20 -25 -11 -14 -32 6 -10 7
-23 4 -28 -11 -17 -20 -3 -23 31 -2 19 -12 43 -24 56 -23 24 -42 55 -58 93 -5
14 -14 32 -20 40 -22 34 -70 133 -70 145 0 7 -6 18 -14 24 -7 6 -16 28 -19 48
-4 20 -16 46 -28 59 -12 12 -22 36 -23 53 0 21 -4 27 -12 20 -8 -7 -14 -6 -17
3 -3 8 -6 8 -6 2z"/>
<path d="M3655 1640 c-4 -6 -10 -8 -15 -5 -4 3 -13 -2 -20 -10 -7 -8 -16 -13
-20 -10 -12 7 -77 -70 -100 -119 -23 -49 -48 -78 -88 -103 -15 -10 -33 -26
-40 -35 -7 -10 -19 -15 -25 -12 -7 4 -9 4 -5 -1 4 -4 3 -14 -3 -22 -6 -7 -8
-13 -3 -13 4 0 -5 -13 -21 -30 -37 -39 -55 -27 -18 14 l28 31 -32 -29 c-18
-16 -31 -34 -30 -39 1 -6 -3 -11 -10 -12 -23 0 -22 -12 4 -36 15 -13 22 -17
15 -8 -10 13 -8 19 6 33 10 9 22 13 27 9 4 -5 5 -3 2 3 -4 7 0 17 8 24 8 7 16
10 16 6 2 -10 6 -25 9 -33 1 -5 2 -11 1 -15 0 -3 6 -5 14 -4 20 3 56 37 49 47
-3 5 2 6 10 3 10 -4 35 13 69 45 30 28 57 49 60 46 4 -3 5 -2 2 2 -3 4 9 23
27 42 18 20 22 27 9 16 -13 -11 -25 -19 -28 -17 -2 2 -18 -11 -35 -27 -18 -17
-28 -31 -23 -31 4 0 -9 -16 -29 -36 -20 -20 -40 -34 -43 -31 -3 3 9 27 26 52
17 25 31 53 31 61 0 7 4 14 9 14 5 0 7 -10 4 -22 -5 -19 1 -17 35 16 29 28 39
43 32 51 -11 14 34 70 48 61 16 -9 9 24 -7 38 -14 13 -17 12 -28 -10 -6 -13
-7 -22 -2 -18 16 10 10 -7 -16 -40 -14 -18 -23 -35 -20 -38 3 -2 -2 -5 -10 -5
-19 0 -19 5 5 45 11 18 20 38 20 45 0 16 71 87 87 87 6 0 16 7 23 15 7 8 10
15 7 15 -3 0 -9 -5 -12 -10z"/>
<path d="M5413 1545 c0 -8 10 -15 21 -15 12 0 41 -7 66 -14 36 -12 40 -15 18
-15 -19 -1 -26 -5 -22 -15 3 -8 1 -17 -5 -21 -7 -3 -11 2 -11 14 0 14 -6 21
-20 21 -11 0 -20 5 -20 10 0 6 -5 10 -11 10 -5 0 -8 -4 -5 -9 10 -16 -18 -19
-35 -5 -13 12 -16 12 -16 -1 0 -8 3 -13 5 -10 3 3 13 -2 23 -11 13 -12 22 -13
37 -5 18 10 21 7 27 -20 7 -30 -8 -75 -28 -90 -7 -5 -13 -23 -16 -50 -1 -3
-10 -16 -21 -29 -11 -12 -18 -26 -15 -30 2 -4 -4 -16 -14 -27 -10 -10 -24 -30
-31 -44 -10 -20 -6 -18 24 10 20 20 36 45 36 57 0 13 4 25 10 29 5 3 19 20 32
37 12 17 15 28 7 23 -12 -8 -12 -6 0 9 10 12 16 13 21 6 4 -7 11 -11 15 -11 5
1 10 -4 12 -11 2 -7 7 -31 12 -53 5 -22 9 -32 10 -22 0 10 6 15 11 12 11 -7
14 18 3 28 -8 9 -11 97 -3 97 15 0 51 -43 46 -56 -3 -7 0 -16 6 -20 7 -5 8 -2
3 6 -6 10 -4 12 9 7 12 -5 30 6 59 33 l42 40 -40 35 c-44 39 -121 83 -157 89
-13 3 -24 5 -25 7 -2 1 -11 2 -20 3 -10 1 -23 4 -29 8 -6 4 -11 1 -11 -7z"/>
</g>
</svg>
